<svg xmlns="http://www.w3.org/2000/svg" width="682.667" height="682.667" preserveAspectRatio="xMidYMid meet" version="1.0" viewBox="0 0 512 512"><metadata>Created by potrace 1.11, written by Peter Selinger 2001-2013</metadata><g fill="#000" stroke="none"><path d="M1728 5100 c-26 -5 -71 -16 -100 -26 -29 -10 -56 -19 -60 -20 -5 -1 -10 -3 -13 -4 -3 -1 -8 -3 -12 -4 -36 -8 -182 -98 -228 -139 -25 -23 -64 -39 -76 -32 -5 4 -19 8 -31 11 -13 3 -45 9 -73 15 -64 13 -290 12 -290 -1 0 -1 -9 -3 -20 -4 -51 -7 -208 -67 -225 -86 -3 -3 -25 -18 -50 -34 -48 -31 -200 -182 -200 -199 0 -6 -6 -18 -14 -26 -20 -22 -71 -128 -86 -176 -43 -145 -49 -309 -16 -430 12 -46 36 -118 43 -128 4 -6 8 -18 9 -25 3 -16 66 -116 76 -120 5 -2 8 -9 8 -15 0 -6 8 -19 17 -29 15 -17 17 -127 18 -1517 l2 -1498 22 -69 c12 -38 25 -76 28 -84 3 -8 7 -17 8 -20 5 -23 49 -108 73 -142 80 -116 258 -241 377 -264 11 -2 31 -7 45 -11 14 -4 540 -9 1170 -10 1176 -4 1234 -2 1335 37 17 6 31 11 33 10 3 -1 92 43 136 67 40 21 172 154 180 181 4 12 12 22 17 22 6 0 8 4 5 9 -4 5 -2 11 2 13 10 4 56 115 71 173 15 61 23 122 26 208 1 43 5 80 8 83 3 3 1 18 -3 34 -4 16 -5 31 -2 35 4 3 7 61 8 128 1 67 2 131 3 142 1 18 12 23 85 33 232 34 410 138 555 325 81 106 102 144 191 342 18 40 70 207 70 224 0 10 3 21 7 25 4 4 8 17 9 29 1 12 5 33 9 47 3 14 8 39 11 55 3 17 8 41 10 55 11 55 15 112 19 270 4 189 -5 266 -46 390 -72 221 -223 354 -439 385 -68 10 -198 6 -285 -9 -73 -13 -96 -19 -101 -27 -3 -5 -10 -7 -15 -3 -5 3 -15 1 -22 -4 -7 -6 -23 -12 -37 -14 l-24 -3 -1 150 c0 83 -4 156 -8 163 -5 7 -4 12 2 12 6 0 11 6 11 14 0 8 3 16 8 18 14 6 138 218 127 218 -3 0 4 21 14 48 30 76 42 233 28 349 -12 93 -56 210 -109 290 -15 23 -28 44 -28 47 0 8 -62 76 -110 123 -19 18 -60 50 -90 71 -30 20 -58 42 -62 47 -4 6 -8 7 -8 3 0 -4 -29 6 -63 23 -88 41 -193 61 -312 59 -124 -1 -125 -1 -125 -12 0 -5 -5 -6 -10 -3 -11 7 -157 -32 -176 -47 -6 -4 -42 3 -83 17 -40 13 -89 27 -109 29 -20 3 -50 8 -67 11 -75 14 -193 10 -297 -9 -16 -2 -28 0 -28 5 0 5 -4 9 -10 9 -5 0 -19 8 -29 18 -35 31 -45 38 -126 78 -65 33 -130 60 -165 69 -3 1 -12 5 -20 8 -51 22 -285 32 -372 17z m242 -393 c8 -2 30 -7 49 -11 39 -9 133 -63 176 -100 107 -94 166 -126 225 -120 27 3 32 4 125 29 93 26 198 16 312 -29 152 -60 182 -61 288 -12 19 9 52 24 72 33 27 13 63 17 133 17 52 0 104 -3 115 -6 27 -8 98 -49 107 -63 4 -5 8 -7 8 -3 0 14 66 -56 99 -104 17 -26 34 -61 37 -78 4 -17 11 -33 15 -36 5 -3 7 -9 4 -14 -3 -5 -1 -20 5 -34 6 -16 6 -27 0 -31 -7 -4 -7 -13 0 -24 5 -10 7 -20 5 -22 -2 -3 -6 -16 -8 -29 -24 -124 -86 -215 -187 -273 -30 -17 -58 -32 -62 -33 -5 -1 -9 -2 -10 -4 -19 -15 -172 -19 -242 -6 -60 12 -126 13 -126 4 0 -5 -4 -7 -9 -4 -21 14 -126 -39 -176 -89 -83 -82 -115 -173 -115 -325 0 -52 2 -106 4 -120 2 -14 7 -45 10 -70 5 -44 30 -191 41 -240 5 -22 8 -40 19 -110 2 -8 6 -31 11 -50 4 -19 9 -46 11 -60 2 -14 6 -38 9 -55 3 -16 8 -43 10 -60 2 -16 8 -59 14 -95 10 -69 8 -305 -3 -354 -10 -43 -25 -68 -59 -99 -43 -39 -95 -50 -227 -51 -95 -1 -124 3 -160 19 -69 30 -102 70 -128 151 -11 33 -9 299 3 374 5 37 55 298 71 375 2 11 7 40 10 65 3 25 9 49 12 54 3 5 7 25 9 45 2 20 6 47 9 61 17 82 24 321 12 385 -22 108 -112 216 -213 255 -74 28 -169 29 -240 4 -37 -14 -78 -18 -160 -18 -126 0 -169 15 -306 105 -125 82 -179 81 -304 -6 -129 -88 -172 -104 -281 -100 -95 4 -109 7 -163 35 -84 42 -172 146 -201 234 -17 53 -15 191 4 244 33 94 118 184 214 229 49 23 70 27 152 27 89 0 101 -3 191 -41 68 -29 107 -40 135 -38 21 1 46 3 55 4 21 1 75 44 166 132 40 38 77 69 81 69 5 0 21 9 35 20 53 42 231 68 317 47z m-480 -1268 c19 -8 37 -17 40 -20 6 -7 123 -45 170 -55 54 -11 97 -14 195 -13 92 0 112 2 178 14 l37 7 -3 -54 c-2 -29 -6 -59 -11 -66 -4 -6 -5 -16 -2 -20 3 -4 1 -26 -4 -48 -5 -21 -12 -57 -15 -79 -4 -22 -12 -65 -19 -95 -12 -51 -15 -55 -42 -57 -16 0 -200 -2 -409 -3 -209 -1 -388 -4 -397 -7 -15 -3 -17 -22 -17 -154 -1 -83 -3 -155 -7 -160 -3 -5 -2 -9 3 -9 8 0 8 -394 0 -453 -2 -15 -1 -27 2 -27 6 0 4 -404 -2 -452 -2 -16 -1 -28 2 -28 3 0 6 -170 5 -378 0 -216 4 -382 9 -389 6 -9 5 -13 -2 -13 -7 0 -9 -5 -5 -11 3 -6 8 -27 10 -47 6 -61 24 -137 45 -188 37 -91 43 -104 51 -104 4 0 8 -5 8 -10 0 -6 18 -35 40 -64 22 -29 40 -56 40 -60 0 -7 -260 -1 -302 8 -16 3 -39 8 -52 10 -46 8 -116 45 -149 78 -58 58 -77 119 -83 275 -11 292 -12 2588 -2 2594 6 4 24 3 40 -2 30 -8 277 -6 313 4 77 20 136 40 141 48 3 5 10 7 15 4 5 -4 9 -1 9 5 0 6 5 8 10 5 6 -3 10 -1 10 5 0 6 5 8 10 5 6 -3 10 -1 10 5 0 6 4 9 9 5 5 -3 13 0 16 6 8 13 55 7 105 -12z m2056 -282 c0 -106 -1 -196 -3 -202 -3 -11 -268 -14 -278 -3 -9 9 -34 121 -29 130 2 3 0 9 -6 13 -6 4 -8 10 -6 13 2 4 0 30 -5 57 -5 28 -12 76 -14 108 -3 32 -6 63 -8 69 -1 7 41 10 133 9 74 -1 149 3 165 7 18 6 34 6 40 0 6 -5 10 -88 11 -201z m851 -216 c49 -2 97 -76 115 -176 10 -52 13 -281 5 -350 -10 -79 -18 -131 -29 -170 -5 -22 -12 -49 -14 -59 -6 -32 -34 -120 -45 -138 -5 -10 -9 -23 -9 -29 0 -24 -111 -230 -142 -265 -58 -64 -88 -94 -88 -89 0 3 -9 -3 -20 -13 -39 -36 -109 -64 -168 -65 l-57 -2 0 604 0 604 41 36 c23 20 54 43 70 51 16 8 37 21 48 30 10 8 20 14 22 12 2 -2 28 1 57 7 78 16 108 18 214 12z" transform="translate(0.000000,512.000000) scale(0.100000,-0.100000)"/></g></svg>