<?xml version="1.0" standalone="no"?>
<!DOCTYPE svg PUBLIC "-//W3C//DTD SVG 20010904//EN"
 "http://www.w3.org/TR/2001/REC-SVG-20010904/DTD/svg10.dtd">
<svg version="1.0" xmlns="http://www.w3.org/2000/svg"
 width="512.000000pt" height="512.000000pt" viewBox="0 0 512.000000 512.000000"
 preserveAspectRatio="xMidYMid meet">
<metadata>
Created by potrace 1.11, written by Peter Selinger 2001-2013
</metadata>
<g transform="translate(0.000000,512.000000) scale(0.100000,-0.100000)"
fill="#000000" stroke="none">
<path d="M1422 3564 c-110 -19 -183 -62 -360 -212 -86 -74 -182 -155 -212
-180 -30 -26 -73 -63 -95 -83 -22 -20 -49 -39 -60 -42 -18 -5 -174 -29 -280
-43 -22 -2 -51 -7 -65 -9 -29 -5 -67 -11 -130 -20 -89 -13 -136 -57 -166 -154
-10 -34 -21 -61 -25 -61 -24 0 -30 -70 -27 -347 l3 -291 24 -21 c13 -12 25
-21 26 -21 2 0 63 -14 136 -31 74 -17 141 -32 149 -33 9 -2 19 -23 26 -52 29
-128 90 -223 193 -305 159 -126 374 -148 559 -57 88 44 199 153 236 235 l28
59 1178 0 1178 -1 28 -60 c40 -83 153 -195 238 -235 82 -38 142 -51 236 -52
195 -2 385 116 473 295 l25 52 156 1 c175 1 199 7 217 61 15 45 -2 86 -44 107
l-32 15 -1 86 c0 82 1 86 23 91 63 16 80 109 27 151 -15 12 -32 21 -38 20 -6
-1 -13 29 -17 70 -8 86 -45 160 -101 204 -32 26 -176 92 -228 105 -241 61
-339 81 -470 98 -83 11 -172 21 -263 31 -68 7 -263 16 -400 19 -86 2 -122 6
-131 17 -8 8 -101 115 -207 239 -239 279 -254 294 -371 341 -52 22 -62 22
-708 24 -491 1 -673 -1 -728 -11z"/>
</g>
</svg>
